[img]http://img856.imageshack.us/img856/3593/platoonbluray600x600320.jpg[/img]
 
http://www.imdb.com/title/tt0091763/

Source: platoon.1986.720p.bluray.x264-leverage

Subs: Dutch, English.

Sample and Screens included.

General
Complete name                    : Platoon 1986-720p MP4 AAC BRRip-CC.mp4
Format                           : MPEG-4
Format profile                   : Base Media
Codec ID                         : isom
File size                        : 1.87 GiB
Duration                         : 1h 59mn
Overall bit rate                 : 2 230 Kbps
Encoded date                     : UTC 2011-12-05 19:50:11
Tagged date                      : UTC 2011-12-05 19:50:11
Writing application              : Yamb 2.1.0.0

Video
ID                               : 1
Format                           : AVC
Format/Info                      : Advanced Video Codec
Format profile                   : Main@L3.1
Format settings, CABAC           : Yes
Format settings, ReFrames        : 5 frames
Codec ID                         : avc1
Codec ID/Info                    : Advanced Video Coding
Duration                         : 1h 59mn
Bit rate mode                    : Variable
Bit rate                         : 1 843 Kbps
Nominal bit rate                 : 1 875 Kbps
Maximum bit rate                 : 23.0 Mbps
Width                            : 1 280 pixels
Height                           : 688 pixels
Display aspect ratio             : 1.860
Frame rate mode                  : Variable
Frame rate                       : 23.976 fps
Minimum frame rate               : 23.810 fps
Maximum frame rate               : 24.390 fps
Resolution                       : 8 bits
Colorimetry                      : 4:2:0
Scan type                        : Progressive
Bits/(Pixel*Frame)               : 0.087
Stream size                      : 1.54 GiB (83%)
Writing library                  : x264 core 65
Encoding settings                : cabac=1 / ref=5 / deblock=1:0:0 / analyse=0x1:0x111 / me=hex / subme=6 / psy_rd=1.0:0.0 / mixed_ref=0 / me_range=16 / chroma_me=1 / trellis=0 / 8x8dct=0 / cqm=0 / deadzone=21,11 / chroma_qp_offset=-2 / threads=3 / nr=0 / decimate=1 / mbaff=0 / bframes=5 / b_pyramid=0 / b_adapt=1 / b_bias=0 / direct=1 / wpredb=0 / keyint=240 / keyint_min=24 / scenecut=40(pre) / rc=abr / bitrate=1875 / ratetol=1.0 / qcomp=0.60 / qpmin=10 / qpmax=51 / qpstep=4 / ip_ratio=1.40 / pb_ratio=1.30 / aq=1:1.00
Encoded date                     : UTC 2011-12-06 06:50:10
Tagged date                      : UTC 2011-12-05 19:52:23
Color primaries                  : BT.709-5, BT.1361, IEC 61966-2-4, SMPTE RP177
Transfer characteristics         : BT.709-5, BT.1361
Matrix coefficients              : BT.709-5, BT.1361, IEC 61966-2-4 709, SMPTE RP177

Audio
ID                               : 2
Format                           : AAC
Format/Info                      : Advanced Audio Codec
Format version                   : Version 4
Format profile                   : LC
Format settings, SBR             : No
Codec ID                         : 40
Duration                         : 1h 59mn
Bit rate mode                    : Variable
Bit rate                         : 384 Kbps
Maximum bit rate                 : 620 Kbps
Channel(s)                       : 6 channels
Channel positions                : Front: L C R, Rear: L R, LFE
Sampling rate                    : 48.0 KHz
Stream size                      : 328 MiB (17%)
Language                         : English
Encoded date                     : UTC 2011-12-05 19:51:53
Tagged date                      : UTC 2011-12-05 19:52:23

Enjoy...

[img]http://img850.imageshack.us/img850/8663/platoon1986720pmp4aacbr.jpg[/img]